<svg xmlns="http://www.w3.org/2000/svg" viewBox="0 0 1521.39 1023">
	<defs>
		<style>
			.cls-1{fill:#5fffa2;}.cls-2{fill:#ccc;}.cls-3{fill:#eedfb6;}.cls-4{fill:#8ac2ff;}.cls-5,.cls-6{fill:none;stroke:#fff;stroke-miterlimit:10;}.cls-5{stroke-width:2px;}.cls-6{stroke-width:5px;}.cls-7,.cls-8{fill:#ff553f;}.cls-8{font-size:15.43px;font-family:ComicSansMS, Comic Sans MS;}

			#loc1:hover, #loc2:hover, #loc3:hover, #loc4:hover, #loc5:hover, #loc6:hover{
				cursor: pointer;
				animation-name: jump;
				animation-duration: 1.5s;
				animation-iteration-count: infinite;
			}

			@keyframes jump{
				0%{transform: translate(0px, 0px);}
				50%{transform: translate(0px,-5px);}
				100%{transform: translate(0px, 0px);}
			}
		</style>
	</defs>
	<g id="colors">
		<polygon class="cls-1" points="0.89 400.5 10.89 383.5 56.89 343.5 99.89 265.5 275.89 260.5 385.89 260.5 415.89 250.5 450.89 250.5 546.89 231.5 635.89 147.5 936.89 182.5 955.89 199.5 950.89 216.5 988.89 244.5 793.89 618.5 757.89 713.5 706.89 856.5 809.89 965.5 895.89 845.5 929.89 795.5 979.89 722.5 1008.89 657.5 1032.89 608.5 1145.89 516.5 1210.89 315.5 1300.89 280.5 1295.39 1009 0.39 1009 0.89 400.5"/>
		<polyline class="cls-2" points="1521.39 297.7 1318.39 272 1283.58 286.23 1210.39 315 1145.39 516 1032.39 608 979.39 726 809.39 965 706.39 856 796.76 611.99 985.99 249.06 987.67 245.83 969.79 229.43 948.39 215 955.39 198 934.44 181.22 638.08 146.75 546.39 230 459.79 247.74 407.99 252.13 385.39 259 314.75 259.5 211.56 261.33 99.39 264 56.39 342 10.39 382 0.39 399 0.39 386 35.39 349 59.39 325 70.34 318.1 70.39 308 76.39 291 76.39 268 82.39 246 82.39 232 45.39 213 41.39 204 25.39 204 19.39 198 26.39 194 41.39 194 63.39 194 73.39 194 73.39 201 68.39 204 66.39 210 66.39 215 69.39 219 76.39 223 91.39 231 111.39 237 117.39 242 122.39 248 149.39 253 168.39 249 178.39 248 182.39 252 201.39 257 220.08 261.08 268.37 259.71 279.01 259.5 290.5 259.5 310.41 259.5 322.39 251 342.39 255 351.39 251 371.39 249 379.39 246 384.39 244 394.39 248 400.39 246 407.39 245 411.59 250.93 454.78 248.73 474.39 235 482.39 232 503.39 234 516.39 231 525.39 222 525.39 209 529.39 200 521.39 186 529.39 181 537.39 181 542.39 181 548.39 175 562.39 175 573.39 175 589.39 170 600.39 153 593.39 140 587.39 129 580.39 129 588.39 122 590.39 109 595.39 105 611.39 114 623.39 119 630.39 117 636.39 123 644.39 129 644.39 135 650.39 139 662.39 139 673.39 140 677.39 135 685.39 130 689.39 131 695.39 127 708.39 126 723.39 128 745.39 135 753.39 137 765.39 143 779.39 150 796.39 147 813.39 147 832.39 156 851.39 162 873.39 166 891.39 163 909.39 168 930.39 166 944.39 165 953.39 168 964.39 180 964.39 188 952.1 211.38 981.5 238.05 985.25 239.97 1020.39 258 1069.39 279 1111.39 297 1144.39 307 1176.39 305 1204.39 296 1230.39 283 1238.39 274 1238.39 261 1238.39 234 1238.39 224 1244.39 219 1265.39 233 1280.39 233 1301.39 229 1321.39 229 1348.39 232 1382.39 238 1425.39 236 1457.39 236 1487.39 237 1521.39 229"/>
		<polyline class="cls-1" points="1521.39 1007.12 1288.39 1001 1300.89 279.5 1318.39 272 1521.39 297.7"/>
		<polygon class="cls-3" points="964.39 180 969.39 190 974.39 199 985.39 206 1007.39 221 1033.39 238 1044.39 246 1073.39 261 1091.39 270 1099.39 270 1116.39 275 1135.39 282 1162.39 287 1192.39 284 1210.39 284 1233.39 271 1233.39 261 1233.39 238 1233.39 229 1238.39 224 1244.39 219 1238.39 229.28 1238.39 248.43 1238.39 269.11 1230.39 283 1204.39 296 1173.03 305.21 1147.47 306.81 1111.39 297 1069.39 279 1032.05 263 991.93 243.4 974.5 232.34 956.35 215.23 952.39 211 964.39 188 964.39 180"/>
		<polyline class="cls-4" points="1521.39 230 1487.39 239 1389.73 238.66 1328.48 230.79 1300.39 230 1265.39 234 1244.39 220 1238.39 225 1233.39 230 1233.39 269 1210.39 285 1183.75 285.86 1162.39 288 1116.39 276 1091.39 271 1053.64 251.21 1007.39 222 966.39 193 966.39 181 944.39 166 914.94 168.47 887.39 164 867.05 165.85 820.39 147 791.39 147 784.04 150.18 757.01 139.81 739.66 134.18 714.42 127.8 695.39 124 689.39 132 677.39 136 668.38 140.54 650.39 140 640.39 130 630.39 118 615.41 116.67 595.39 106 590.39 106 588.39 123 580.39 130 587.39 130 593.39 141 600.39 154 583.84 172.73 562.39 176 548.39 176 542.39 181 529.39 181 521.39 187 529.39 200 525.39 210 525.39 223 516.39 232 503.39 239 482.39 233 474.39 239 450.89 250.5 415.39 250 407.39 244 394.39 249 384.39 244 371.39 250 351.39 252 342.39 256 322.39 252 310.39 260 226.4 262.06 186.62 254.11 173.54 249.49 149.39 254 136.21 251.56 122.39 249 111.39 238 80.98 226.45 76.44 223.92 69.39 220 68.39 205 73.39 193 41.39 193 19.39 200 31.35 205 41.39 205 45.39 214 82.39 233 82.39 244 76.39 269 76.39 281.85 70.39 308 70.39 319 46 339.39 0.39 387 0.39 0 1521.39 0"/>
		<polyline class="cls-1" points="0.39 1009 0.39 1023 1280.39 1023 1521.39 1023 1521.39 1001 0.89 1001"/>
	</g>
	<g id="road">
		<polyline class="cls-5" points="1122.39 334 1110.39 332 1096.39 329 1080.39 325 1055.39 317 1038.39 310 1035.39 306 1034.39 301 1035.39 298 1040.39 287 1046.39 273 1047.39 268 1047.39 261 1045.39 256 1032.39 249 1020.39 242 1014.39 236 1004.39 229 1000.39 227 993.39 223 978.39 214 970.39 206 966.39 199 974.39 199 994.39 214 1014.39 228 1040.39 245 1058.39 254 1148.39 299 1146.39 312 1134.39 337 1116.39 373 1106.39 391 1096.39 409 1086.39 432 1077.39 452 1069.39 459 1060.39 465 1047.39 471 1031.39 479 1014.39 488 1005.39 495 998.39 502 991.39 506 989.39 510 984.39 516 974.39 528 967.39 540 958.39 556 952.39 573 945.39 591 942.39 596 934.39 609 924.39 625 920.39 634 913.39 647 900.39 676 894.39 691 888.39 707 881.39 713 867.39 718 852.39 724 849.1 724"/>
		<line class="cls-5" x1="955.39" y1="531" x2="966.47" y2="541.64"/>
		<polyline class="cls-5" points="899.74 677.64 881.39 670 885.39 657 870.39 652 872.39 644 876.39 639"/>
		<polyline class="cls-5" points="848.39 710 850.39 712 862.39 711 864.39 706 862.39 695 861.39 676 867.93 662.69 870.72 650.69"/>
		<polyline class="cls-5" points="867.05 664.48 881.39 670 876.39 681 876.39 684 881.39 684 885.39 684 887.39 686"/>
		<polyline class="cls-5" points="863.39 678 875.39 681 877.39 684 867.39 690 863.39 695"/>
		<path class="cls-6" d="M867,734l-4,2-4,1-3,3h-4v-3l-4-9-.5-1.5s6-6-1-8-14-10-14-16,11-26,11-26,1-23,0-27,10-30,9-35,2.14-12.31,1-23c-1-9.45-5.41-17.47-4-17,3,1,3-44,1-42s23-30,24-27,14,3,20,5,11-6,14-5,17-1,17-7-9-21-15-24-11-10-10-18,9-16,8-18-1-18-1-24-10.87-.5-19-2-16.5-5-17-4c-1,2-4,2-8,7s-5,2-9,4-2,8-4,9-6,2-12-1,6,11,12,11h15c6,0,8,10,2,12s-5,4-36,9c-16.33,2.63-36,13-41,12s-9.63,7-12,7c-5,0,17-27,20-28s-4-6-10-4-29,25-30,22-31-6-32-9,7-23,5-27-2-2-7-9-7-29-11-21,0,17,2,17-4,8-7,13-8,4.19-11,5c-4.54,1.23-11,4.41-15,5-9.73,1.43-13.57-.51-16-1-5-1-6,15-12,14s-14-22-21-17-3,14-4,19-11,4-14,9,3,18,5,17,2,24-4,21-19-17-23-12-5,7-5,12-11,2-12,5-3,13-7,12-27-1-28,3,0,16,0,16,13,14,4,14-14-6-17-9-23,16-25,23-2,25-2,25,5,11,0,10-9-1.37-14-5-3-11-9-6-5,10-10,10-11-9-13-10-4.47,3.47-8,3c-2.67-.35-4.28-4.86-6-4-4,2,2-28-2-27s-13-10-13-10a46.8,46.8,0,0,0-11-1c-2.79.16-4.54,2-7,2-7,0-8.35-3.45-17-6-4.68-1.38-9.49-1.25-13-3-10-5-14-13-20-19s-19-14-25-21-10-12-16-25-5.16-14.52-10-19-8.5-14.75-7-17c2-3-14-9-17-9s-7-6-11-9-7,1-13-3-13-16-17-14-4,5-10,4-6-3-9-4-16,10-21,8-8-16-12-18-2,6-12,13-24,8-20,12,36,4,35,6c-2,4,39,15,39,15s18,13,25,24c1.18,1.85,8,14,8,11s18.62,13.31,20,14c4,2-8,8-5,17s4.86,7.08,8,11c8,10,21,15,21,15s9,18,15,21,17,10,16,14-10,26-3,37a30.5,30.5,0,0,0,19,13s9,15,15,15c2.73,0,8.32,5.25,13,9,5.62,4.51,10.09,7.82,9,10-2,4-13,26-29,20s-22-2-26-2-6,14-8,13-21.48,0-22-1c-1-2-14-8-20-7s-12,0-17,0-16-12-16-12-10-1-16-1-4-1-6-4,12-1,12-1l11-5h12s24-9,16-9-32-3-32-3l-22-7-27-1s-2,27-5,21a33.09,33.09,0,0,0-9-11,68.25,68.25,0,0,0-15-8s-3.15-7.32-9-12c-5-4-12.27-7.73-13-7-3,3-28-6-28-6s-5,3-7.63,14.5-7.87,14.5-8.37,14.5c-1,0-14.78-11.53-30-16-12.62-3.7-26.15-4-31-4a146.56,146.56,0,0,0-47,8" transform="translate(0.39 -1)"/>
		<polyline class="cls-5" points="812.39 852 815.39 833 819.39 821 826.39 804 834.39 786 842.39 769 848.39 752 852.39 742.47 852.39 739 852.39 745 855.39 746 855.39 752 855.39 760 853.39 769"/>
		<line class="cls-5" x1="832.39" y1="803" x2="828.06" y2="800.24"/>
		<line class="cls-5" x1="835.39" y1="797" x2="830.73" y2="794.25"/>
		<line class="cls-5" x1="838.39" y1="789" x2="833.39" y2="786"/>
		<polyline class="cls-5" points="815.99 831.19 812.39 829 814.39 824 817.39 815 821.39 805 826.39 793 830.39 781 833.39 773 835.39 763 840.39 752 844.39 752 847.39 752"/>
		<polyline class="cls-5" points="778.39 850 782.39 835 784.39 828 789.39 823 792.39 814 804.39 807 808.39 802 812.39 802 820.75 806.59"/>
		<line class="cls-5" x1="820.39" y1="779" x2="830.39" y2="781"/>
		<polyline class="cls-5" points="825.39 746 833.39 749 840.39 751 845.99 752"/>
		<line class="cls-5" x1="804.39" y1="689" x2="833.39" y2="695"/>
		<polyline class="cls-5" points="820.39 679 825.39 679 838.27 686.5"/>
	</g>
	<g id="Locations">
		<g id="loc1" data-name="1">
			<path class="cls-7" d="M567,477.5A15.5,15.5,0,1,1,551.5,462,15.47,15.47,0,0,1,567,477.5Z" transform="translate(0.39 -1)"/>
			<path class="cls-7" d="M563.8,486.93s-6.3,5.57-9.3,12.57a36.53,36.53,0,0,0-3,13,36.53,36.53,0,0,0-3-13c-3-7-9.3-12.57-9.3-12.57" transform="translate(0.39 -1)"/>
			<circle class="cls-1" cx="551.89" cy="476.5" r="10"/>
			<text class="cls-8" transform="translate(547.39 482.19) scale(1.44 1)">1</text>
		</g>
		<g id="loc2" data-name="2">
			<path class="cls-7" d="M741.5,377A15.5,15.5,0,1,1,726,361.5,15.47,15.47,0,0,1,741.5,377Z" transform="translate(0.39 -1)"/>
			<path class="cls-7" d="M738.3,386.43S732,392,729,399a36.53,36.53,0,0,0-3,13,36.53,36.53,0,0,0-3-13c-3-7-9.3-12.57-9.3-12.57" transform="translate(0.39 -1)"/>
			<circle class="cls-1" cx="726.39" cy="376" r="10"/>
			<text class="cls-8" transform="translate(719.89 381.69) scale(1.44 1)">2</text>
		</g>
		<g id="loc3" data-name="3">
			<path class="cls-7" d="M850.5,611A15.5,15.5,0,1,1,835,595.5,15.47,15.47,0,0,1,850.5,611Z" transform="translate(0.39 -1)"/>
			<path class="cls-7" d="M847.3,620.43S841,626,838,633a36.53,36.53,0,0,0-3,13,36.53,36.53,0,0,0-3-13c-3-7-9.3-12.57-9.3-12.57" transform="translate(0.39 -1)"/>
			<circle class="cls-2" cx="835.39" cy="610" r="10"/>
			<text class="cls-8" transform="translate(828.89 615.69) scale(1.44 1)">3</text>
		</g>
		<g id="loc4" data-name="4">
			<path class="cls-7" d="M914.5,632A15.5,15.5,0,1,1,899,616.5,15.47,15.47,0,0,1,914.5,632Z" transform="translate(0.39 -1)"/>
			<path class="cls-7" d="M911.3,641.43S905,647,902,654a36.53,36.53,0,0,0-3,13,36.53,36.53,0,0,0-3-13c-3-7-9.3-12.57-9.3-12.57" transform="translate(0.39 -1)"/>
			<circle class="cls-2" cx="899.39" cy="631" r="10"/>
			<text class="cls-8" transform="translate(892.89 636.69) scale(1.44 1)">4</text>
		</g>
		<g id="loc5" data-name="5">
			<path class="cls-7" d="M1163.5,341a15.5,15.5,0,1,1-15.5-15.5A15.47,15.47,0,0,1,1163.5,341Z" transform="translate(0.39 -1)"/>
			<path class="cls-7" d="M1160.3,350.43S1154,356,1151,363a36.53,36.53,0,0,0-3,13,36.53,36.53,0,0,0-3-13c-3-7-9.3-12.57-9.3-12.57" transform="translate(0.39 -1)"/>
			<circle class="cls-2" cx="1148.39" cy="340" r="10"/>
			<text class="cls-8" transform="translate(1141.89 345.69) scale(1.44 1)">5</text>
		</g>
		<g id="loc6" data-name="6">
			<path class="cls-7" d="M1006.5,184A15.5,15.5,0,1,1,991,168.5,15.47,15.47,0,0,1,1006.5,184Z" transform="translate(0.39 -1)"/>
			<path class="cls-7" d="M1003.3,193.43S997,199,994,206a36.53,36.53,0,0,0-3,13,36.53,36.53,0,0,0-3-13c-3-7-9.3-12.57-9.3-12.57" transform="translate(0.39 -1)"/>
			<circle class="cls-4" cx="991.39" cy="183" r="10"/>
			<text class="cls-8" transform="translate(984.89 188.69) scale(1.44 1)">6</text>
		</g>
	</g>
</svg>